<svg width="104" height="104" viewBox="0 0 104 104" fill="none" xmlns="http://www.w3.org/2000/svg">
<circle cx="52" cy="52" r="52" fill="#A63A4B"/>
<path d="M29.2023 73C27.0674 66.6296 26 60.3123 26 54.0481C26 46.8284 27.8299 41.042 31.4897 36.6889C35.1496 32.2296 40.4868 30 47.5015 30L47.5015 40.0333C42.1134 40.0333 39.4194 43.6432 39.4194 50.863L39.4194 53.2519L49.1789 53.2519L49.1789 73L29.2023 73ZM58.0235 73C55.9902 66.5235 54.9736 60.2062 54.9736 54.0481C54.9736 46.8284 56.7527 41.042 60.3109 36.6889C63.9707 32.2296 69.3079 30 76.3226 30L76.3226 40.0333C71.0362 40.0333 68.393 43.6432 68.393 50.863L68.393 53.2519L78 53.2519L78 73L58.0235 73Z" fill="#DD8794"/>
</svg>
