<svg width="159" height="159" viewBox="0 0 159 159" fill="none" xmlns="http://www.w3.org/2000/svg">
<circle cx="79.5" cy="79.5" r="78.5" fill="white" stroke="#A63A4B" stroke-width="2"/>
<path d="M43.1894 21.786C42.9739 21.3932 42.8638 20.9693 42.8591 20.5141C42.8506 20.0717 42.9781 19.6345 43.2415 19.2026C43.5094 18.7789 43.9298 18.41 44.5026 18.0958C45.0591 17.7906 45.6103 17.6213 46.1562 17.5881C46.7021 17.5548 47.2025 17.6422 47.6574 17.8505C48.1085 18.0714 48.4758 18.3916 48.7591 18.8111L47.8507 19.3093C47.6788 19.0735 47.4456 18.8715 47.151 18.7031C46.8564 18.5347 46.5146 18.4453 46.1258 18.4351C45.7414 18.433 45.3405 18.5464 44.9232 18.7753C44.3749 19.076 44.0384 19.4522 43.9135 19.9039C43.7805 20.3601 43.8374 20.8132 44.0843 21.2633C44.2952 21.6479 44.564 21.905 44.8905 22.0346C45.2134 22.1769 45.5539 22.2349 45.9122 22.2088C46.2622 22.1871 46.7254 22.1193 47.3016 22.0055C47.936 21.8812 48.4636 21.8047 48.8844 21.7762C49.3015 21.7603 49.7099 21.845 50.1095 22.0303C50.5092 22.2156 50.8505 22.566 51.1332 23.0816C51.4923 23.7362 51.5549 24.3938 51.321 25.0543C51.0872 25.7148 50.5693 26.265 49.7673 26.7049C48.949 27.1537 48.1925 27.3078 47.498 27.1671C46.7952 27.0309 46.235 26.6889 45.8174 26.1408L46.738 25.6359C47.0136 25.9638 47.3895 26.1834 47.8658 26.2948C48.3338 26.4106 48.842 26.3182 49.3903 26.0175C49.8977 25.7392 50.2309 25.3861 50.3901 24.9582C50.5492 24.5302 50.5009 24.083 50.2451 23.6166C50.0431 23.2483 49.7852 23.0013 49.4713 22.8754C49.1574 22.7495 48.8318 22.6992 48.4944 22.7246C48.1488 22.7544 47.6961 22.8218 47.1362 22.9266C46.4936 23.0555 45.9597 23.1301 45.5345 23.1504C45.101 23.1753 44.6758 23.0891 44.259 22.8919C43.8421 22.6947 43.4856 22.3261 43.1894 21.786ZM40.2615 32.8398L34.528 24.8059L35.3257 24.2366L38.042 28.0428L42.3951 24.9361L39.6789 21.13L40.488 20.5525L46.2214 28.5865L45.4123 29.1639L42.8668 25.5971L38.5137 28.7037L41.0592 32.2706L40.2615 32.8398ZM28.975 29.7233L33.7486 30.9296L34.9246 29.8506L32.1421 26.8177L32.8745 26.1457L39.547 33.4185L37.3188 35.4629C36.5004 36.2137 35.715 36.5796 34.9628 36.5604C34.2037 36.5476 33.5244 36.2145 32.925 35.5611C32.3698 34.9559 32.1 34.3167 32.1158 33.6436C32.1247 32.9768 32.4208 32.3125 33.0042 31.6506L28.1497 30.4805L28.975 29.7233ZM35.4263 30.3974L33.982 31.7224C32.8129 32.7951 32.6921 33.8369 33.6196 34.8478C34.5661 35.8795 35.6239 35.8589 36.793 34.7863L38.2373 33.4612L35.4263 30.3974ZM33.2144 38.3681L30.4269 35.8988L27.8739 38.7806L27.2975 38.27L29.8505 35.3882L27.0315 32.8909L24.2001 36.0871L23.5923 35.5487L27.0829 31.6084L34.4708 38.1533L30.9803 42.0935L30.3829 41.5644L33.2144 38.3681ZM29.3103 43.0142L26.2933 40.8311L24.0364 43.9503L23.4126 43.4989L25.6695 40.3798L22.6184 38.1721L20.1153 41.6315L19.4574 41.1555L22.5432 36.8908L30.5395 42.6767L27.4537 46.9414L26.8072 46.4736L29.3103 43.0142ZM14.3278 50.4558L19.2193 49.8946L19.9374 48.4693L16.2615 46.6174L16.7087 45.7297L25.5233 50.1704L24.1628 52.871C23.6631 53.8629 23.058 54.483 22.3477 54.7313C21.6332 54.9879 20.88 54.9168 20.0881 54.5179C19.3546 54.1483 18.8761 53.646 18.6526 53.0109C18.425 52.3841 18.4668 51.6579 18.7782 50.8324L13.8238 51.4561L14.3278 50.4558ZM20.6 48.8031L19.7182 50.5535C19.0043 51.9705 19.26 52.9877 20.4853 53.605C21.7356 54.2348 22.7177 53.8413 23.4316 52.4243L24.3134 50.6739L20.6 48.8031ZM19.4049 65.0301L10.2412 61.9735L10.5513 61.0438L18.2276 63.6043L11.6101 57.8698L11.8891 57.0331L20.602 56.3973L12.9523 53.8457L13.2668 52.9028L22.4305 55.9594L22.0628 57.0617L12.9028 57.8434L19.7682 63.9411L19.4049 65.0301ZM13.2824 72.9003C12.2785 72.7353 11.4408 72.3941 10.7691 71.8769C10.1067 71.3613 9.64106 70.6841 9.37226 69.8454C9.11116 69.0173 9.06997 68.06 9.24868 66.9732L9.73257 64.0308L19.4718 65.6324L18.9879 68.5748C18.7183 70.2141 18.0779 71.4047 17.0668 72.1464C16.0634 72.8989 14.8019 73.1502 13.2824 72.9003ZM10.1303 67.0473C9.90469 68.4195 10.0828 69.5224 10.6646 70.3558C11.2556 71.1908 12.1819 71.712 13.4437 71.9195C14.7054 72.127 15.7453 71.9291 16.5633 71.3259C17.3906 70.7241 17.9171 69.7371 18.1427 68.3649L18.454 66.4723L10.4416 65.1547L10.1303 67.0473ZM13.1291 97.2348C12.6931 97.3379 12.2552 97.3311 11.8152 97.2145C11.3865 97.1049 10.999 96.8656 10.6529 96.4967C10.3158 96.1256 10.0721 95.6222 9.92177 94.9864C9.77575 94.3688 9.75937 93.7924 9.87263 93.2573C9.9859 92.7222 10.2035 92.2632 10.5253 91.8802C10.8584 91.5042 11.2648 91.2354 11.7445 91.0741L11.9829 92.0823C11.7099 92.1852 11.453 92.3562 11.2123 92.5953C10.9715 92.8345 10.7944 93.1401 10.681 93.5122C10.5766 93.8821 10.5792 94.2987 10.6887 94.7619C10.8326 95.3705 11.1056 95.7951 11.5077 96.0357C11.912 96.2853 12.3639 96.3511 12.8635 96.233C13.2904 96.1321 13.6098 95.9415 13.8216 95.6612C14.0447 95.3879 14.1914 95.0751 14.2616 94.7229C14.3339 94.3797 14.3919 93.9152 14.4356 93.3294C14.4847 92.6849 14.5514 92.156 14.636 91.7428C14.7317 91.3365 14.9221 90.9654 15.2072 90.6295C15.4922 90.2936 15.9208 90.058 16.493 89.9227C17.2197 89.7509 17.8702 89.8656 18.4446 90.2669C19.019 90.6682 19.4114 91.3139 19.6218 92.204C19.8366 93.1123 19.7837 93.8825 19.4632 94.5145C19.1448 95.1556 18.6659 95.6045 18.0265 95.8612L17.7849 94.8394C18.1743 94.661 18.4861 94.3571 18.7202 93.9277C18.9565 93.5074 19.0027 92.993 18.8589 92.3844C18.7257 91.8213 18.4741 91.406 18.104 91.1387C17.7339 90.8713 17.29 90.7988 16.7723 90.9212C16.3635 91.0179 16.0567 91.2007 15.8518 91.4697C15.6468 91.7388 15.5117 92.0393 15.4463 92.3712C15.3831 92.7122 15.3274 93.1666 15.2794 93.7342C15.2325 94.3878 15.1623 94.9223 15.0687 95.3377C14.9772 95.7621 14.7809 96.149 14.4799 96.4983C14.1788 96.8476 13.7286 97.0931 13.1291 97.2348ZM23.0418 102.894L13.8006 106.361L13.4564 105.443L17.8345 103.801L15.9562 98.7937L11.5781 100.436L11.229 99.5053L20.4702 96.0387L20.8193 96.9694L16.7165 98.5085L18.5948 103.516L22.6976 101.977L23.0418 102.894ZM17.1426 112.979L19.5207 108.668L18.7755 107.256L15.1358 109.178L14.6716 108.299L23.3996 103.691L24.8116 106.365C25.3302 107.347 25.4848 108.199 25.2754 108.922C25.0703 109.653 24.5757 110.226 23.7917 110.64C23.0653 111.023 22.3787 111.122 21.7316 110.936C21.0889 110.758 20.5214 110.303 20.0292 109.571L17.6656 113.969L17.1426 112.979ZM19.4317 106.91L20.3468 108.643C21.0877 110.046 22.0648 110.427 23.278 109.787C24.516 109.133 24.7646 108.105 24.0237 106.702L23.1086 104.968L19.4317 106.91ZM26.5662 111.036L23.4786 113.118L25.6311 116.31L24.9927 116.741L22.8402 113.549L19.7178 115.654L22.1051 119.194L21.4319 119.648L18.4888 115.284L26.6721 109.766L29.6152 114.13L28.9535 114.576L26.5662 111.036ZM30.0869 115.973L27.2204 118.35L29.6781 121.313L29.0854 121.805L26.6277 118.841L23.7289 121.246L26.4547 124.532L25.8297 125.051L22.4693 120.999L30.0666 114.698L33.427 118.75L32.8127 119.259L30.0869 115.973ZM33.5316 132.363L34.2232 127.488L33.0252 126.434L30.3055 129.523L29.5594 128.867L36.0811 121.458L38.3509 123.456C39.1846 124.19 39.6319 124.932 39.6929 125.682C39.7608 126.438 39.5019 127.149 38.916 127.815C38.3733 128.431 37.7665 128.767 37.0955 128.823C36.4316 128.885 35.7395 128.662 35.0193 128.152L34.3723 133.103L33.5316 132.363ZM33.5155 125.877L34.9866 127.172C36.1776 128.22 37.2264 128.23 38.1329 127.2C39.058 126.149 38.925 125.099 37.7341 124.051L36.2629 122.756L33.5155 125.877ZM48.9335 131.243L43.5983 139.296L42.7814 138.754L47.2505 132.009L39.992 136.906L39.2567 136.419L40.9094 127.841L36.4556 134.564L35.627 134.015L40.9622 125.962L41.9309 126.603L40.3029 135.651L47.9765 130.609L48.9335 131.243ZM54.9472 139.305C54.5175 140.227 53.9632 140.942 53.2841 141.45C52.6089 141.948 51.8312 142.214 50.9511 142.247C50.0833 142.275 49.1503 142.057 48.152 141.591L45.449 140.332L49.6172 131.385L52.3202 132.645C53.8261 133.346 54.7999 134.284 55.2416 135.458C55.6957 136.627 55.5975 137.909 54.9472 139.305ZM48.461 140.762C49.7216 141.35 50.8316 141.476 51.7911 141.14C52.7545 140.796 53.5062 140.045 54.0462 138.885C54.5862 137.726 54.676 136.672 54.3156 135.721C53.9592 134.762 53.1508 133.989 51.8902 133.402L50.1516 132.592L46.7225 139.952L48.461 140.762ZM71.3446 145.925C71.2709 146.367 71.0951 146.768 70.8173 147.129C70.5503 147.482 70.1797 147.746 69.7055 147.923C69.2329 148.09 68.6744 148.12 68.0299 148.012C67.4039 147.908 66.8662 147.7 66.4166 147.388C65.9671 147.077 65.6281 146.698 65.3996 146.253C65.1818 145.801 65.0913 145.322 65.1282 144.817L66.1501 144.988C66.1393 145.279 66.1976 145.582 66.3249 145.897C66.4522 146.211 66.6654 146.493 66.9645 146.742C67.2652 146.981 67.6503 147.14 68.1198 147.218C68.7367 147.321 69.2338 147.234 69.6113 146.956C69.998 146.68 70.2336 146.289 70.3181 145.782C70.3903 145.35 70.3382 144.981 70.1618 144.678C69.9962 144.366 69.7645 144.11 69.4669 143.909C69.1785 143.709 68.7727 143.476 68.2495 143.209C67.6741 142.914 67.2123 142.648 66.8641 142.41C66.5266 142.164 66.2581 141.845 66.0587 141.452C65.8593 141.06 65.808 140.573 65.9048 139.993C66.0277 139.257 66.3853 138.701 66.9776 138.327C67.57 137.953 68.3172 137.841 69.2194 137.991C70.14 138.145 70.8297 138.492 71.2884 139.032C71.7562 139.574 71.9848 140.189 71.9739 140.878L70.9382 140.705C70.9245 140.277 70.765 139.872 70.4597 139.49C70.1636 139.109 69.7072 138.868 69.0904 138.765C68.5196 138.669 68.0393 138.741 67.6496 138.978C67.2598 139.216 67.0211 139.597 66.9336 140.122C66.8644 140.536 66.9142 140.89 67.083 141.183C67.2517 141.476 67.4764 141.717 67.7572 141.906C68.0472 142.096 68.4445 142.324 68.9493 142.588C69.5338 142.884 69.9995 143.155 70.3462 143.403C70.7021 143.651 70.9829 143.982 71.1884 144.395C71.3939 144.808 71.446 145.318 71.3446 145.925ZM80.4947 139.063L80.0164 148.922L79.0375 148.874L79.2641 144.204L73.9224 143.945L73.6958 148.615L72.703 148.567L73.1813 138.708L74.1741 138.757L73.9618 143.133L79.3035 143.393L79.5158 139.016L80.4947 139.063ZM87.4234 148.542L84.4482 144.619L82.8559 144.727L83.1354 148.834L82.1436 148.901L81.4735 139.054L84.4905 138.849C85.5986 138.773 86.4405 138.978 87.016 139.463C87.6009 139.947 87.9235 140.631 87.9837 141.516C88.0394 142.335 87.851 143.003 87.4184 143.519C86.995 144.034 86.3489 144.368 85.4799 144.521L88.5408 148.466L87.4234 148.542ZM82.8055 143.987L84.761 143.854C86.344 143.746 87.0889 143.008 86.9958 141.639C86.9007 140.242 86.0617 139.598 84.4787 139.705L82.5232 139.838L82.8055 143.987ZM89.5398 139.144L90.1632 142.816L93.9588 142.171L94.0877 142.93L90.292 143.575L90.9224 147.288L95.1322 146.573L95.2681 147.373L90.0783 148.254L88.4263 138.524L93.616 137.643L93.7496 138.429L89.5398 139.144ZM95.5256 137.971L96.4948 141.567L100.212 140.565L100.413 141.308L96.6953 142.31L97.6754 145.946L101.798 144.835L102.01 145.619L96.927 146.989L94.3582 137.459L99.4407 136.089L99.6484 136.86L95.5256 137.971ZM111.875 141.685L107.741 139.011L106.281 139.656L107.943 143.421L107.034 143.823L103.048 134.793L105.814 133.572C106.83 133.124 107.691 133.029 108.397 133.289C109.112 133.544 109.649 134.078 110.007 134.889C110.339 135.64 110.389 136.332 110.158 136.965C109.936 137.593 109.442 138.128 108.677 138.567L112.899 141.233L111.875 141.685ZM105.981 138.977L107.774 138.186C109.226 137.545 109.674 136.597 109.12 135.342C108.555 134.061 107.546 133.741 106.095 134.382L104.302 135.173L105.981 138.977ZM117.347 127.243L122.402 135.475L121.567 135.987L117.332 129.092L118.716 137.739L117.964 138.2L110.881 133.087L115.101 139.958L114.254 140.479L109.199 132.247L110.189 131.639L117.709 136.928L116.369 127.844L117.347 127.243ZM127.179 125.181C127.835 125.958 128.251 126.761 128.426 127.591C128.595 128.413 128.51 129.23 128.17 130.043C127.831 130.842 127.241 131.597 126.399 132.308L124.121 134.232L117.753 126.691L120.031 124.767C121.3 123.695 122.56 123.205 123.811 123.297C125.062 123.376 126.185 124.004 127.179 125.181ZM125.777 131.679C126.839 130.782 127.42 129.827 127.518 128.815C127.611 127.797 127.244 126.799 126.419 125.822C125.594 124.845 124.675 124.321 123.661 124.248C122.641 124.169 121.6 124.578 120.537 125.475L119.072 126.713L124.311 132.916L125.777 131.679ZM141.697 109.978C142.082 110.207 142.392 110.517 142.627 110.907C142.858 111.284 142.97 111.725 142.962 112.231C142.946 112.732 142.771 113.263 142.437 113.825C142.112 114.37 141.723 114.795 141.269 115.101C140.816 115.407 140.34 115.585 139.843 115.636C139.342 115.675 138.863 115.585 138.406 115.367L138.936 114.477C139.204 114.593 139.507 114.649 139.847 114.645C140.186 114.64 140.526 114.544 140.866 114.356C141.198 114.162 141.486 113.861 141.73 113.452C142.05 112.915 142.149 112.42 142.028 111.968C141.911 111.507 141.632 111.145 141.191 110.883C140.814 110.658 140.452 110.573 140.105 110.627C139.754 110.668 139.431 110.791 139.136 110.995C138.845 111.191 138.481 111.484 138.042 111.875C137.558 112.304 137.142 112.637 136.794 112.875C136.442 113.101 136.048 113.235 135.609 113.278C135.171 113.321 134.699 113.192 134.194 112.891C133.552 112.509 133.165 111.974 133.031 111.286C132.898 110.598 133.065 109.861 133.533 109.075C134.011 108.274 134.584 107.757 135.254 107.526C135.929 107.287 136.585 107.298 137.223 107.558L136.686 108.46C136.282 108.317 135.847 108.319 135.38 108.464C134.918 108.602 134.527 108.939 134.207 109.477C133.911 109.974 133.802 110.447 133.882 110.897C133.962 111.346 134.231 111.707 134.688 111.979C135.049 112.194 135.396 112.276 135.731 112.226C136.065 112.175 136.371 112.053 136.649 111.86C136.932 111.659 137.288 111.371 137.717 110.997C138.205 110.56 138.628 110.225 138.984 109.992C139.345 109.751 139.755 109.609 140.214 109.568C140.673 109.526 141.168 109.663 141.697 109.978ZM138.539 99.0038L147.58 102.962L147.187 103.86L142.904 101.985L140.759 106.884L145.042 108.759L144.644 109.67L135.602 105.711L136.001 104.801L140.015 106.558L142.16 101.659L138.146 99.9015L138.539 99.0038ZM149.792 95.8859L145.083 97.3234L144.635 98.8552L148.586 100.011L148.306 100.965L138.834 98.1935L139.683 95.2912C139.995 94.2252 140.477 93.5058 141.131 93.133C141.787 92.7513 142.541 92.6849 143.392 92.9339C144.18 93.1645 144.742 93.5719 145.076 94.156C145.414 94.7313 145.504 95.453 145.347 96.3212L150.107 94.8109L149.792 95.8859ZM143.923 98.6469L144.473 96.7657C144.919 95.2429 144.483 94.2888 143.166 93.9036C141.823 93.5105 140.928 94.0753 140.483 95.5982L139.932 97.4793L143.923 98.6469ZM141.668 90.7382L145.335 91.3855L146.005 87.5941L146.763 87.7279L146.094 91.5193L149.802 92.1739L150.544 87.9689L151.344 88.11L150.429 93.2939L140.709 91.5783L141.624 86.3944L142.41 86.5332L141.668 90.7382ZM142.556 84.7698L146.271 85.0396L146.549 81.1997L147.317 81.2555L147.039 85.0954L150.795 85.3682L151.104 81.1094L151.914 81.1682L151.532 86.4184L141.688 85.7034L142.07 80.4532L142.866 80.511L142.556 84.7698ZM151.392 70.5625L147.527 73.6127L147.666 75.2027L151.766 74.8441L151.853 75.8343L142.02 76.6941L141.757 73.6816C141.66 72.5752 141.848 71.7295 142.322 71.1447C142.795 70.5506 143.473 70.215 144.356 70.1377C145.174 70.0662 145.845 70.2417 146.369 70.6643C146.893 71.0776 147.239 71.7172 147.408 72.5831L151.294 69.4467L151.392 70.5625ZM146.926 75.2673L146.756 73.3147C146.617 71.7341 145.865 71.0035 144.498 71.1231C143.104 71.245 142.475 72.0963 142.613 73.6769L142.784 75.6295L146.926 75.2673ZM139.401 60.8484L148.8 58.62L149.026 59.5736L141.152 61.4403L149.798 62.8294L150.002 63.6876L142.93 68.8172L150.777 66.9569L151.006 67.9241L141.606 70.1525L141.338 69.0219L148.713 63.5326L139.666 61.9655L139.401 60.8484ZM140.463 50.9303C141.403 50.5423 142.295 50.3915 143.139 50.4777C143.973 50.5675 144.726 50.8983 145.396 51.47C146.053 52.0366 146.592 52.829 147.012 53.8471L148.15 56.6037L139.025 60.3678L137.888 57.6111C137.255 56.0754 137.173 54.726 137.642 53.5632C138.099 52.3952 139.039 51.5176 140.463 50.9303ZM146.224 54.2482C145.693 52.9626 144.961 52.1186 144.028 51.7161C143.086 51.3172 142.024 51.3616 140.842 51.8492C139.66 52.3368 138.88 53.0524 138.502 53.9959C138.115 54.9429 138.187 56.0593 138.717 57.3448L139.449 59.1179L146.955 56.0212L146.224 54.2482ZM127.822 30.0953C128.14 29.7806 128.518 29.5586 128.954 29.4295C129.378 29.3003 129.833 29.3032 130.321 29.4384C130.801 29.5802 131.271 29.8835 131.73 30.3485C132.176 30.8002 132.49 31.284 132.671 31.8C132.853 32.316 132.905 32.8212 132.83 33.3157C132.741 33.8101 132.533 34.2509 132.207 34.6382L131.479 33.9009C131.659 33.671 131.79 33.3914 131.871 33.0619C131.952 32.7325 131.945 32.3793 131.848 32.0025C131.745 31.6323 131.526 31.2777 131.192 30.939C130.753 30.4939 130.299 30.2731 129.83 30.2767C129.355 30.2736 128.935 30.4523 128.569 30.8129C128.257 31.1211 128.083 31.4499 128.048 31.7995C128 32.149 128.037 32.4924 128.16 32.8298C128.277 33.1606 128.469 33.5875 128.736 34.1106C129.029 34.6867 129.247 35.1732 129.39 35.5702C129.519 35.967 129.549 36.383 129.48 36.8181C129.412 37.2532 129.168 37.6773 128.749 38.0904C128.218 38.6149 127.603 38.8551 126.903 38.8109C126.204 38.7668 125.533 38.4192 124.891 37.7682C124.235 37.1039 123.88 36.4185 123.825 35.712C123.764 34.9988 123.939 34.3664 124.352 33.8147L125.09 34.562C124.85 34.9168 124.741 35.3385 124.765 35.827C124.781 36.3089 125.009 36.7724 125.449 37.2175C125.855 37.6293 126.286 37.8532 126.741 37.8892C127.196 37.9252 127.613 37.7563 127.992 37.3826C128.291 37.0875 128.458 36.7718 128.493 36.4355C128.528 36.0991 128.487 35.7722 128.371 35.4546C128.247 35.1304 128.059 34.7134 127.805 34.2035C127.505 33.6208 127.287 33.1277 127.151 32.7242C127.008 32.3141 126.975 31.8816 127.051 31.4267C127.126 30.9718 127.383 30.528 127.822 30.0953ZM116.397 30.3456L122.531 22.6128L123.299 23.2218L120.393 26.8853L124.583 30.2087L127.489 26.5452L128.267 27.1629L122.134 34.8957L121.355 34.278L124.078 30.8449L119.888 27.5214L117.165 30.9546L116.397 30.3456ZM116.281 18.6214L116.427 23.5428L117.786 24.3787L119.942 20.8723L120.789 21.3928L115.62 29.8011L113.044 28.2174C112.098 27.6357 111.531 26.9805 111.343 26.2517C111.148 25.5181 111.282 24.7736 111.747 24.0182C112.177 23.3185 112.718 22.8842 113.37 22.7151C114.013 22.5412 114.733 22.6442 115.53 23.0241L115.326 18.0348L116.281 18.6214ZM117.398 25.0108L115.728 23.9843C114.376 23.1534 113.341 23.3223 112.623 24.4911C111.89 25.6838 112.199 26.6956 113.551 27.5265L115.22 28.553L117.398 25.0108ZM109.131 25.0683L110.741 21.7105L107.27 20.0456L107.603 19.3513L111.074 21.0162L112.703 17.6205L108.852 15.774L109.204 15.0419L113.95 17.3182L109.682 26.2176L104.935 23.9413L105.28 23.2218L109.131 25.0683ZM103.573 22.5753L104.854 19.0785L101.238 17.7544L101.503 17.0314L105.118 18.3555L106.414 14.8192L102.404 13.3507L102.683 12.5882L107.626 14.3986L104.232 23.6665L99.2888 21.8561L99.5632 21.1068L103.573 22.5753ZM92.3561 10.1036L94.186 14.6746L95.7501 14.9918L96.5683 10.958L97.5425 11.1555L95.5805 20.8286L92.6169 20.2274C91.5283 20.0067 90.7708 19.5863 90.3442 18.9665C89.9084 18.3448 89.7786 17.5995 89.9549 16.7305C90.1181 15.9256 90.4767 15.3316 91.0305 14.9488C91.5752 14.564 92.2867 14.4131 93.1651 14.4961L91.2585 9.88094L92.3561 10.1036ZM95.6026 15.719L93.6818 15.3294C92.1268 15.014 91.2129 15.5286 90.9402 16.8732C90.6619 18.2453 91.3002 19.089 92.8552 19.4044L94.7761 19.794L95.6026 15.719ZM79.5475 18.7338L80.1742 9.09412L81.1521 9.15769L80.6272 17.2327L84.4911 9.37475L85.3712 9.43197L88.201 17.6969L88.7241 9.64993L89.716 9.71441L89.0894 19.3541L87.9298 19.2787L84.8451 10.6183L80.6931 18.8082L79.5475 18.7338ZM70.2922 14.6829C70.2117 13.6688 70.3419 12.7736 70.6829 11.9976C71.0246 11.2308 71.5703 10.6163 72.3201 10.1542C73.0613 9.7021 73.9809 9.43248 75.0788 9.34531L78.0514 9.10929L78.8326 18.9483L75.8599 19.1843C74.2038 19.3158 72.8944 18.9797 71.9318 18.1761C70.9606 17.3825 70.4141 16.2181 70.2922 14.6829ZM75.2183 10.219C73.832 10.3291 72.8041 10.7665 72.1345 11.5312C71.4657 12.3052 71.1819 13.3296 71.2831 14.6042C71.3843 15.8789 71.8258 16.841 72.6077 17.4904C73.3903 18.1492 74.4747 18.4236 75.861 18.3135L77.773 18.1617L77.1303 10.0672L75.2183 10.219Z" fill="#A63A4B"/>
</svg>
