<svg width="61" height="49" viewBox="0 0 61 49" fill="none" xmlns="http://www.w3.org/2000/svg">
<path d="M25.8955 0.5V12.4668H25.3955C22.4551 12.4669 20.3263 13.4095 18.9141 15.2324C17.483 17.0797 16.7256 19.9087 16.7256 23.8037V25.915H27.7988L27.7988 48.5H4.27832L4.16113 48.1641C1.72193 41.1524 0.5 34.1921 0.5 27.2852C0.500005 19.3043 2.60136 12.8525 6.85156 7.98242C11.1214 2.97336 17.3312 0.50008 25.3955 0.5H25.8955ZM58.5967 0.5V12.4668H58.0967C55.2172 12.4668 53.1318 13.4067 51.7471 15.2285C50.3426 17.0763 49.5996 19.9072 49.5996 23.8037V25.915H60.5L60.5 48.5H36.9717L36.8594 48.1553C34.5378 41.0315 33.374 34.0739 33.374 27.2852C33.374 19.3075 35.4165 12.8575 39.5488 7.9873L39.9551 7.52441C44.2091 2.82264 50.2821 0.50002 58.0967 0.5L58.5967 0.5Z" stroke="#A63A4B"/>
</svg>
