<svg width="75" height="60" viewBox="0 0 75 60" fill="none" xmlns="http://www.w3.org/2000/svg">
<path d="M70.3812 1.10403e-05C73.4604 8.8889 75 17.7037 75 26.4445C75 36.5185 72.3607 44.5926 67.0821 50.6667C61.8035 56.8889 54.1056 60 43.9883 60L43.9883 46C51.7595 46 55.6452 40.963 55.6452 30.8889L55.6452 27.5556L41.5689 27.5556L41.5689 8.52145e-06L70.3812 1.10403e-05ZM28.8123 7.40624e-06C31.7449 9.03704 33.2111 17.8519 33.2111 26.4444C33.2111 36.5185 30.6452 44.5926 25.5132 50.6667C20.2346 56.8889 12.5366 60 2.41934 60L2.41934 46C10.044 46 13.8563 40.963 13.8563 30.8889L13.8563 27.5556L-4.79301e-06 27.5556L-2.38403e-06 4.88738e-06L28.8123 7.40624e-06Z" fill="#A63A4B" fill-opacity="0.16"/>
</svg>
