<svg width="23" height="19" viewBox="0 0 23 19" fill="none" xmlns="http://www.w3.org/2000/svg">
<path d="M12.9229 18.6399V11.97C12.9229 8.99241 13.7367 6.39195 15.3645 4.16866C16.9923 1.90567 19.4935 0.516119 22.8681 0V4.34732C20.9227 4.58553 19.6324 5.22076 18.9972 6.253C18.362 7.28524 18.0444 8.65494 18.0444 10.3621L14.5308 9.64748H22.749V18.6399H12.9229ZM0 18.6399V11.97C0 8.99241 0.813882 6.39195 2.44165 4.16866C4.06941 1.90567 6.57061 0.516119 9.94525 0V4.34732C7.99987 4.58553 6.70957 5.22076 6.07434 6.253C5.43912 7.28524 5.1215 8.65494 5.1215 10.3621L1.60791 9.64748H9.82614V18.6399H0Z" fill="#A63A4B"/>
</svg>
