<svg width="52" height="43" viewBox="0 0 52 43" fill="none" xmlns="http://www.w3.org/2000/svg">
<path d="M48.7977 3.25478e-06C50.9326 6.37037 52 12.6877 52 18.9519C52 26.1716 50.1701 31.958 46.5103 36.3111C42.8504 40.7704 37.5132 43 30.4985 43L30.4985 32.9667C35.8866 32.9667 38.5806 29.3568 38.5806 22.137L38.5806 19.7481L28.8211 19.7481L28.8211 -2.38029e-07L48.7977 3.25478e-06ZM19.9765 -1.78446e-06C22.0098 6.47654 23.0264 12.7938 23.0264 18.9518C23.0264 26.1716 21.2473 31.958 17.6891 36.3111C14.0293 40.7704 8.69207 43 1.67741 43L1.67741 32.9667C6.96382 32.9667 9.60704 29.3568 9.60704 22.137L9.60704 19.7481L2.50785e-07 19.7481L3.70366e-06 -5.27727e-06L19.9765 -1.78446e-06Z" fill="white"/>
</svg>
